<?xml version="1.0" encoding="UTF-8"?>
<svg enable-background="new 0 0 96 96" version="1.1" viewBox="0 0 96 96" xml:space="preserve" xmlns="http://www.w3.org/2000/svg"><style/><defs><linearGradient id="a" x1="50.98" x2="50.28" y1="8.26" y2="87.81" gradientUnits="userSpaceOnUse"><stop stop-color="#e9e9e9" offset="0"/><stop stop-color="#fcfcfc" offset="1"/></linearGradient><filter id="filter36319" x="-.03989" y="-.03809" width="1.08" height="1.088" color-interpolation-filters="sRGB"><feFlood flood-color="rgb(0,0,0)" flood-opacity=".498" result="flood"/><feComposite in="flood" in2="SourceGraphic" operator="in" result="composite1"/><feGaussianBlur in="composite1" result="blur" stdDeviation="4"/><feOffset dx="0" dy="3" result="offset"/><feComposite in="SourceGraphic" in2="offset" result="composite2"/></filter></defs><path d="m88 49c0 29.64-10.36 40-40 40-29.63 0-40-10.36-40-40 0-29.63 10.37-40 40-40 29.64 0 40 10.37 40 40z" enable-background="new    " opacity=".2811"/><path d="m88 48c-0.08282 10.46-0.913 21.98-8.078 30.26-7.032 7.658-18 9.323-27.88 9.671-11.3 0.2052-23.66-0.014-33.15-7.011-8.128-6.531-10.41-17.53-10.72-27.44-0.5045-11.21-0.2142-23.22 5.782-33.1 5.716-8.458 16.3-11.49 26-12.05 10.16-0.8035 20.68-0.4542 30.38 2.916 7.566 2.912 13.52 9.518 15.4 17.43 1.87 6.254 2.194 12.84 2.254 19.32z" fill="url(#a)"/><g transform="matrix(.2301 0 0 .2301 31 39.13)" filter="url(#filter36319)" stroke-width="1.333"><path d="m71.05 148.1c-12.47-4.359-25.22-8.877-28.33-10.04l-5.667-2.114v-20.47l55.81-55.76 30.43 5.004c16.74 2.752 31.78 5.319 33.43 5.704 2.842 0.6627 3 1.344 3 12.9v12.2l-30.34 30.32c-19.82 19.81-31.26 30.3-33 30.25-1.461-0.0389-12.86-3.637-25.32-7.996zm64-98.29c-15.4-2.6-28.19-4.878-28.43-5.062-0.2374-0.1846 0.5126-2.162 1.667-4.393 3.248-6.282 2.577-11.21-2.568-18.86l-4.667-6.935v-31.7c0-27.06 0.304-31.96 2.074-33.42 2.456-2.038 61.55-12.21 64.89-11.16 1.264 0.3941 3.514 2.262 5 4.151 2.605 3.312 2.701 5.236 2.701 54.02v50.59l-3.897 3.897c-2.144 2.144-4.994 3.831-6.333 3.75-1.34-0.08095-15.04-2.274-30.44-4.874zm22-53.65c0-19.8-0.45-35.99-1-35.97-0.55 0.01685-8.8 1.203-18.33 2.636-9.533 1.433-17.78 2.619-18.33 2.636-0.55 0.01685-1 13.83-1 30.7 0 23.59 0.3845 30.69 1.667 30.77 0.9167 0.05465 8.567 1.185 17 2.512 8.433 1.327 16.38 2.482 17.67 2.567 2.168 0.1442 2.333-2.389 2.333-35.84z" fill="#32fefe"/><path d="m71.35 25.43-22.37-7.887-8.301 1.957c-16.75 3.949-38.39 1.133-53.19-6.918-13.45-7.323-23.78-22.56-23.78-35.09 0-12.53 10.33-27.76 23.78-35.09 8.989-4.892 25.33-8.914 36.22-8.914 10.89 0 27.23 4.022 36.22 8.914 13.49 7.34 23.78 22.56 23.78 35.16 0 6.7-3.311 15.61-7.954 21.4l-3.848 4.799 11.33 13.82c12.75 15.55 13.05 15.95 11.55 15.83-0.5933-0.04967-11.14-3.639-23.44-7.977z" fill="#0065fe"/><path d="m63.51 161.5c-30.99-10.84-36.41-13.42-39.1-18.63-2.735-5.289-2.824-29.34-0.1277-34.45 1.045-1.98 15.14-16.76 31.31-32.84 16.18-16.08 29.27-29.35 29.1-29.47-0.1721-0.1274-8.374-3.044-18.23-6.481-16.77-5.849-18.33-6.161-24.4-4.859-3.567 0.7649-12.06 1.391-18.87 1.391-30.94 0-58.04-14.57-69.18-37.2-3.937-7.996-4.302-9.822-4.302-21.46s0.3659-13.47 4.302-21.46c5.314-10.79 16.66-21.96 28.25-27.81 31.62-15.96 74.89-11.24 98.09 10.71l6.887 6.513 2.981-4.032c1.639-2.217 5.494-5.184 8.565-6.592 5.381-2.467 59.04-11.99 67.55-11.99 4.958 0 12.95 3.886 16.87 8.204 7.195 7.917 7.156 7.566 7.156 65.12 0 50.42-0.1479 53.74-2.608 58.57-2.544 4.987-9.699 12.11-12.16 12.11-0.6844 0-1.231 7.134-1.231 16.07 0 11.39-0.5567 17.11-1.911 19.67-2.297 4.327-62.85 64.69-67 66.79-6.262 3.17-15.27 1.486-41.96-7.843zm65.86-35.67 30.34-30.32v-12.2c0-11.56-0.1584-12.24-3-12.9-1.65-0.3848-16.69-2.952-33.43-5.704l-30.43-5.004-55.81 55.76v20.47l5.667 2.114c18.88 7.043 51.4 17.98 53.66 18.04 1.735 0.0461 13.18-10.44 33-30.25zm42.45-74.91 3.897-3.897v-50.59c0-48.79-0.0963-50.71-2.701-54.02-1.486-1.889-3.736-3.757-5-4.151-3.339-1.041-62.44 9.126-64.89 11.16-1.77 1.469-2.074 6.368-2.074 33.42v31.7l4.667 6.935c5.146 7.646 5.817 12.57 2.568 18.86-1.154 2.232-1.904 4.209-1.667 4.393 0.5648 0.4391 55.7 9.744 58.87 9.936 1.34 0.08093 4.19-1.607 6.333-3.75zm-34.77-21.49c-8.433-1.327-16.08-2.457-17-2.512-1.282-0.07645-1.667-7.175-1.667-30.77 0-16.87 0.45-30.68 1-30.7 0.55-0.01685 8.8-1.203 18.33-2.636 9.533-1.433 17.78-2.619 18.33-2.636 0.55-0.01685 1 16.17 1 35.97 0 33.46-0.1649 35.99-2.333 35.84-1.283-0.08533-9.233-1.241-17.67-2.567zm-41.83 3.005c-0.3573-0.5782-5.748-7.269-11.98-14.87l-11.33-13.82 3.848-4.799c4.643-5.79 7.954-14.7 7.954-21.4 0-12.6-10.29-27.82-23.78-35.16-8.989-4.892-25.33-8.914-36.22-8.914-10.89 0-27.23 4.022-36.22 8.914-13.45 7.323-23.78 22.56-23.78 35.09 0 12.53 10.33 27.76 23.78 35.09 14.79 8.051 36.44 10.87 53.19 6.918l8.301-1.957 22.37 7.887c23.51 8.291 24.92 8.704 23.87 7.016z"/></g></svg>
